<?xml version="1.0" encoding="utf-8"?>
<!-- Generator: Adobe Illustrator 17.0.0, SVG Export Plug-In . SVG Version: 6.00 Build 0)  -->
<!DOCTYPE svg PUBLIC "-//W3C//DTD SVG 1.1//EN" "http://www.w3.org/Graphics/SVG/1.1/DTD/svg11.dtd">
<svg version="1.1" id="Layer_1" xmlns="http://www.w3.org/2000/svg" xmlns:xlink="http://www.w3.org/1999/xlink" x="0px" y="0px"
	 width="248.825px" height="89.5px" viewBox="0 0 248.825 89.5" enable-background="new 0 0 248.825 89.5" xml:space="preserve">
<g>
	<g>
		<path d="M35.095,52.357l1.14-1.963c0.253-0.443,0.792-0.443,1.076-0.222c0.158,0.095,2.723,1.964,4.781,1.964
			c1.646,0,2.881-1.077,2.881-2.438c0-1.614-1.361-2.723-4.02-3.799C37.975,44.696,35,42.797,35,39.061
			c0-2.818,2.089-6.078,7.123-6.078c3.229,0,5.698,1.646,6.332,2.121c0.317,0.191,0.411,0.729,0.19,1.045l-1.203,1.805
			c-0.253,0.38-0.729,0.633-1.108,0.38c-0.253-0.159-2.659-1.742-4.4-1.742c-1.805,0-2.786,1.203-2.786,2.216
			c0,1.488,1.172,2.501,3.736,3.546c3.07,1.234,6.616,3.071,6.616,7.155c0,3.261-2.817,6.268-7.281,6.268
			c-3.99,0-6.332-1.867-6.965-2.469C34.968,53.023,34.809,52.864,35.095,52.357z"/>
		<path d="M57,54.637l9.846-21.306c0.095-0.189,0.253-0.348,0.538-0.348H67.7c0.317,0,0.443,0.159,0.539,0.348l9.751,21.306
			c0.189,0.412-0.064,0.823-0.539,0.823h-2.754c-0.475,0-0.697-0.19-0.918-0.633l-1.552-3.419h-9.465l-1.552,3.419
			c-0.127,0.317-0.411,0.633-0.918,0.633h-2.755C57.063,55.46,56.81,55.049,57,54.637z M70.676,47.893l-3.166-6.965h-0.095
			l-3.102,6.965H70.676z"/>
		<path d="M87.199,33.901c0-0.317,0.253-0.602,0.602-0.602h2.913c0.317,0,0.602,0.285,0.602,0.602v17.76h8.072
			c0.348,0,0.601,0.285,0.601,0.602v2.595c0,0.317-0.253,0.602-0.601,0.602H87.801c-0.349,0-0.602-0.285-0.602-0.602V33.901z"/>
		<path d="M119.077,32.983c6.332,0,11.397,5.097,11.397,11.429s-5.065,11.365-11.397,11.365s-11.365-5.033-11.365-11.365
			S112.745,32.983,119.077,32.983z M119.077,51.661c3.989,0,7.281-3.261,7.281-7.249c0-3.99-3.292-7.313-7.281-7.313
			s-7.25,3.324-7.25,7.313C111.827,48.4,115.088,51.661,119.077,51.661z"/>
		<path d="M140.949,33.553c0-0.317,0.285-0.57,0.602-0.57h0.791l13.17,13.993h0.032V33.901c0-0.317,0.253-0.602,0.601-0.602h2.913
			c0.317,0,0.602,0.285,0.602,0.602v21.306c0,0.317-0.285,0.57-0.602,0.57h-0.76l-13.232-14.531h-0.032v13.612
			c0,0.317-0.253,0.602-0.601,0.602h-2.881c-0.317,0-0.602-0.285-0.602-0.602V33.553z"/>
		<path d="M182.545,54.13c2.089-2.533,6.078-7.725,8.199-10.543c0.981-1.202,1.614-2.437,1.614-3.514
			c0-1.425-1.076-2.881-3.355-2.881c-1.52,0-2.818,1.076-3.546,1.867c-0.253,0.253-0.602,0.253-0.855,0l-1.52-1.52
			c-0.19-0.19-0.253-0.57-0.031-0.823c0,0,2.469-3.103,6.236-3.103c4.527,0,7.06,2.881,7.06,6.3c0,2.058-0.886,3.356-2.121,5.129
			c-1.362,1.931-3.768,4.907-5.445,7.027h6.838c0.317,0,0.602,0.285,0.602,0.602v2.184c0,0.317-0.285,0.602-0.602,0.602h-12.473
			c-0.348,0-0.601-0.285-0.601-0.602V54.13z"/>
		<path d="M209.388,39.694l-2.786,0.601c-0.285,0.064-0.601-0.127-0.633-0.411l-0.189-1.551c-0.032-0.253,0.031-0.444,0.158-0.571
			l4.559-3.83h2.216c0.317,0,0.57,0.285,0.57,0.602v20.324c0,0.317-0.253,0.602-0.57,0.602h-2.723c-0.349,0-0.602-0.285-0.602-0.602
			V39.694z"/>
	</g>
	<g>
		<path d="M74.604,81.313c1.14,0,2.034,0.456,2.717,1.33c0.133,0.172,0.095,0.399-0.076,0.532l-0.361,0.304
			c-0.285,0.266-0.38,0.076-0.55-0.076c-0.381-0.437-1.007-0.799-1.749-0.799c-1.425,0-2.527,1.178-2.527,2.699
			c0,1.52,1.083,2.736,2.508,2.736c1.14,0,1.577-0.57,2.015-0.988c0.228-0.229,0.361-0.191,0.569-0.038l0.209,0.152
			c0.191,0.133,0.248,0.342,0.133,0.532c-0.569,0.912-1.615,1.596-2.907,1.596c-2.11,0-3.896-1.691-3.896-3.972
			C70.689,83.08,72.532,81.313,74.604,81.313z"/>
		<path d="M83.556,77.094c0-0.513,0.399-0.912,0.892-0.912c0.514,0,0.913,0.399,0.913,0.912c0,0.494-0.399,0.894-0.913,0.894
			C83.955,77.987,83.556,77.588,83.556,77.094z M83.822,81.864c0-0.19,0.171-0.361,0.361-0.361h0.59c0.19,0,0.361,0.171,0.361,0.361
			v6.879c0,0.191-0.171,0.361-0.361,0.361h-0.59c-0.19,0-0.361-0.171-0.361-0.361V81.864z"/>
		<path d="M92.013,81.864c0-0.19,0.171-0.361,0.361-0.361h0.361c0.172,0,0.267,0.076,0.305,0.228l0.171,0.589
			c0,0,1.083-1.007,2.66-1.007c2.205,0,2.945,1.445,2.945,3.421v4.01c0,0.191-0.171,0.361-0.361,0.361h-0.607
			c-0.191,0-0.362-0.171-0.362-0.361v-4.01c0-1.445-0.645-2.148-1.71-2.148c-1.425,0-2.452,1.083-2.452,1.083v5.074
			c0,0.191-0.171,0.361-0.361,0.361h-0.59c-0.19,0-0.361-0.171-0.361-0.361V81.864z"/>
		<path d="M108.948,81.313c1.14,0,2.032,0.456,2.717,1.33c0.133,0.172,0.095,0.399-0.076,0.532l-0.362,0.304
			c-0.285,0.266-0.38,0.076-0.55-0.076c-0.38-0.437-1.007-0.799-1.748-0.799c-1.427,0-2.527,1.178-2.527,2.699
			c0,1.52,1.082,2.736,2.508,2.736c1.14,0,1.577-0.57,2.014-0.988c0.228-0.229,0.362-0.191,0.571-0.038l0.209,0.152
			c0.19,0.133,0.247,0.342,0.133,0.532c-0.569,0.912-1.615,1.596-2.907,1.596c-2.11,0-3.897-1.691-3.897-3.972
			C105.031,83.08,106.876,81.313,108.948,81.313z"/>
		<path d="M117.898,77.094c0-0.513,0.399-0.912,0.894-0.912c0.513,0,0.913,0.399,0.913,0.912c0,0.494-0.4,0.894-0.913,0.894
			C118.297,77.987,117.898,77.588,117.898,77.094z M118.164,81.864c0-0.19,0.171-0.361,0.362-0.361h0.588
			c0.19,0,0.361,0.171,0.361,0.361v6.879c0,0.191-0.171,0.361-0.361,0.361h-0.588c-0.191,0-0.362-0.171-0.362-0.361V81.864z"/>
		<path d="M126.355,81.864c0-0.19,0.171-0.361,0.362-0.361h0.361c0.171,0,0.266,0.076,0.304,0.228l0.171,0.589
			c0,0,1.083-1.007,2.662-1.007c2.203,0,2.945,1.445,2.945,3.421v4.01c0,0.191-0.171,0.361-0.361,0.361h-0.609
			c-0.19,0-0.361-0.171-0.361-0.361v-4.01c0-1.445-0.647-2.148-1.711-2.148c-1.425,0-2.452,1.083-2.452,1.083v5.074
			c0,0.191-0.171,0.361-0.361,0.361h-0.588c-0.191,0-0.362-0.171-0.362-0.361V81.864z"/>
		<path d="M139.565,81.864c0-0.19,0.171-0.361,0.361-0.361h0.361c0.172,0,0.267,0.076,0.305,0.228l0.171,0.589
			c0,0,1.083-1.007,2.66-1.007c2.205,0,2.945,1.445,2.945,3.421v4.01c0,0.191-0.171,0.361-0.361,0.361H145.4
			c-0.191,0-0.362-0.171-0.362-0.361v-4.01c0-1.445-0.645-2.148-1.71-2.148c-1.425,0-2.452,1.083-2.452,1.083v5.074
			c0,0.191-0.171,0.361-0.361,0.361h-0.59c-0.19,0-0.361-0.171-0.361-0.361V81.864z"/>
		<path d="M155.642,84.278c0.818,0,1.616,0.247,1.616,0.247c0.019-1.406-0.152-2.052-1.235-2.052c-1.045,0-1.939,0.285-2.281,0.418
			c-0.19,0.076-0.304-0.019-0.361-0.191l-0.153-0.475c-0.076-0.229,0.038-0.342,0.21-0.418c0.114-0.057,1.216-0.494,2.641-0.494
			c1.938,0,2.414,0.989,2.414,3.212v4.219c0,0.191-0.171,0.361-0.362,0.361h-0.361c-0.209,0-0.266-0.114-0.323-0.285l-0.152-0.513
			c-0.4,0.399-1.178,0.988-2.357,0.988c-1.33,0-2.338-0.969-2.338-2.49C152.602,85.361,153.686,84.278,155.642,84.278z
			 M155.149,88.154c0.951,0,1.767-0.589,2.091-1.064v-1.502c-0.228-0.133-0.761-0.304-1.597-0.304c-1.063,0-1.824,0.532-1.824,1.52
			C153.819,87.565,154.331,88.154,155.149,88.154z"/>
		<path d="M165.811,82.643h-0.97c-0.209,0-0.361-0.171-0.361-0.361v-0.418c0-0.209,0.152-0.361,0.361-0.361h0.97v-2.11
			c0-0.19,0.171-0.361,0.362-0.361l0.607-0.038c0.19,0,0.342,0.172,0.342,0.361v2.148h2.205c0.209,0,0.361,0.152,0.361,0.361v0.418
			c0,0.19-0.152,0.361-0.361,0.361h-2.205v4.448c0,0.76,0.19,0.912,0.628,0.912c0.475,0,1.14-0.285,1.387-0.418
			c0.285-0.153,0.361-0.039,0.456,0.114l0.286,0.475c0.133,0.229,0.076,0.342-0.134,0.475c-0.266,0.172-1.292,0.646-2.184,0.646
			c-1.521,0-1.749-0.912-1.749-2.09V82.643z"/>
		<path d="M175.732,77.094c0-0.513,0.399-0.912,0.892-0.912c0.514,0,0.913,0.399,0.913,0.912c0,0.494-0.399,0.894-0.913,0.894
			C176.131,77.987,175.732,77.588,175.732,77.094z M175.998,81.864c0-0.19,0.171-0.361,0.361-0.361h0.59
			c0.19,0,0.361,0.171,0.361,0.361v6.879c0,0.191-0.171,0.361-0.361,0.361h-0.59c-0.19,0-0.361-0.171-0.361-0.361V81.864z"/>
	</g>
	<path d="M226.561,87.5h-0.001l-39.328,0.198c-0.984-0.001-1.78-0.829-1.78-1.813c0.001-0.983,0.798-1.825,1.781-1.825l37.543,0.171
		l-0.03-16.374c-0.002-0.865,0.619-1.57,1.471-1.72c5.036-0.889,9.644-3.521,12.975-7.445c3.371-3.97,5.227-9.015,5.227-14.221
		c0-5.227-1.853-10.293-5.217-14.271c-3.322-3.929-7.91-6.568-12.917-7.435c-0.852-0.147-1.474-0.989-1.477-1.853L224.759,4.5
		H23.835l-0.05,16.412c-0.003,0.864-0.625,1.655-1.477,1.802c-5.007,0.867-9.595,3.535-12.917,7.464
		c-3.364,3.979-5.217,9.062-5.217,14.289c0,5.206,1.857,10.267,5.228,14.237c3.332,3.924,7.94,6.578,12.976,7.467
		c0.852,0.15,1.473,0.893,1.471,1.758l-0.027,16.308l37.562,0.003c0.983,0,1.768,0.772,1.768,1.755
		c0.001,0.984-0.796,1.631-1.78,1.631L22.039,87.5h-0.001c-0.473,0-0.926,0.034-1.26-0.301c-0.334-0.335-0.522-0.678-0.521-1.151
		l0.028-16.727c-5.273-1.259-10.057-4.163-13.598-8.333C2.77,56.375,0.612,50.516,0.612,44.467c0-6.068,2.152-11.948,6.059-16.569
		c3.534-4.179,8.304-7.103,13.556-8.343l0.051-16.457c0.003-0.982,0.8-1.598,1.781-1.598h204.475c0.982,0,1.778,0.618,1.781,1.6
		l0.052,16.547c5.253,1.24,10.023,4.123,13.557,8.302c3.907,4.621,6.059,10.486,6.059,16.554c0,6.05-2.157,11.912-6.074,16.525
		c-3.54,4.17-8.325,7.096-13.597,8.355l0.03,16.779c0.001,0.473-0.187,0.704-0.521,1.039C227.487,87.535,227.034,87.5,226.561,87.5z
		"/>
</g>
</svg>
