<!DOCTYPE svg PUBLIC "-//W3C//DTD SVG 20010904//EN" "http://www.w3.org/TR/2001/REC-SVG-20010904/DTD/svg10.dtd">
<svg version="1.0" xmlns="http://www.w3.org/2000/svg" width="542px" height="390px" viewBox="0 0 5420 3900" preserveAspectRatio="xMidYMid meet">
<g id="layer101" fill="#121313" stroke="none">
 <path d="M1483 3683 c-46 -9 -48 -17 -53 -356 l-5 -321 -55 -19 c-89 -30 -193 -81 -261 -128 -71 -48 -197 -170 -225 -218 -10 -17 -22 -31 -26 -31 -4 0 -8 -4 -8 -10 0 -5 -15 -33 -33 -62 -31 -49 -71 -145 -95 -228 -11 -35 -26 -130 -37 -227 -6 -52 17 -238 37 -303 20 -66 62 -165 85 -202 13 -21 23 -41 23 -44 0 -12 81 -116 134 -172 28 -29 73 -70 101 -90 27 -20 52 -39 55 -42 15 -16 200 -110 217 -110 4 0 27 -7 50 -16 l43 -17 0 -327 c0 -308 1 -329 19 -351 l19 -24 1279 -3 c899 -2 1286 1 1304 9 46 19 49 38 49 378 l0 318 48 18 c207 75 357 177 474 324 209 261 272 614 167 931 -61 186 -193 367 -357 490 -59 44 -170 100 -265 134 l-62 23 -5 316 c-5 313 -5 317 -28 339 l-23 23 -1272 1 c-699 1 -1282 -1 -1294 -3z m2445 -175 c9 -9 12 -90 12 -304 0 -340 -3 -331 97 -354 238 -56 441 -214 548 -428 20 -40 41 -87 46 -105 37 -119 41 -148 41 -267 -1 -138 -20 -231 -71 -345 -91 -201 -282 -372 -486 -435 -22 -7 -50 -16 -63 -21 -13 -5 -32 -9 -43 -9 -11 0 -31 -11 -44 -25 l-25 -24 0 -306 c0 -192 -4 -314 -10 -326 -10 -19 -34 -19 -1169 -19 -1048 0 -1159 2 -1165 16 -3 9 -6 154 -6 324 l0 308 -23 22 c-14 13 -55 31 -97 42 -150 39 -270 108 -380 218 -377 376 -295 1018 165 1286 58 34 173 84 193 84 32 0 114 34 127 53 12 18 15 73 15 318 0 162 3 299 7 302 3 4 527 7 1163 7 886 0 1159 -3 1168 -12z"/>
 <path d="M2660 2986 c-52 -7 -126 -22 -165 -35 -159 -49 -315 -155 -315 -214 0 -28 29 -87 89 -177 45 -68 77 -76 143 -34 146 93 274 144 361 144 69 0 147 -39 181 -91 37 -55 38 -132 3 -192 -43 -73 -106 -113 -369 -236 -133 -61 -186 -97 -263 -176 -97 -100 -145 -215 -145 -345 0 -237 154 -426 402 -494 111 -31 358 -17 466 25 73 30 182 86 225 116 66 48 65 79 -5 187 -29 45 -62 89 -73 98 -27 23 -84 22 -120 -2 -50 -34 -189 -99 -236 -109 -102 -24 -182 -8 -242 48 -34 32 -40 45 -44 88 -12 119 68 195 312 298 84 36 222 109 270 143 68 48 148 131 181 187 110 189 84 424 -66 588 -93 102 -201 156 -360 183 -98 16 -103 16 -230 0z"/>
 </g>
<g id="layer102" fill="#fafafa" stroke="none">
 <path d="M0 1950 l0 -1950 2710 0 2710 0 0 1950 0 1950 -2710 0 -2710 0 0 -1950z m4072 1712 c23 -22 23 -26 28 -339 l5 -316 62 -23 c159 -57 267 -124 381 -236 357 -354 389 -924 74 -1319 -117 -147 -267 -249 -474 -324 l-48 -18 0 -318 c0 -340 -3 -359 -49 -378 -18 -8 -405 -11 -1304 -9 l-1279 3 -19 24 c-18 22 -19 43 -19 351 l0 327 -43 17 c-23 9 -46 16 -50 16 -17 0 -202 94 -217 110 -3 3 -28 22 -55 42 -28 20 -73 61 -101 90 -53 56 -134 160 -134 172 0 3 -10 23 -23 44 -23 37 -65 136 -85 202 -20 65 -43 251 -37 303 11 97 26 192 37 227 24 83 64 179 95 228 18 29 33 57 33 62 0 6 4 10 8 10 4 0 16 14 26 31 28 48 154 170 225 218 68 47 172 98 261 128 l55 19 5 321 c5 339 7 347 53 356 12 2 595 4 1294 3 l1272 -1 23 -23z"/>
 <path d="M1597 3513 c-4 -3 -7 -140 -7 -302 0 -245 -3 -300 -15 -318 -13 -19 -95 -53 -127 -53 -20 0 -135 -50 -193 -84 -124 -72 -228 -178 -300 -306 -179 -316 -122 -724 135 -980 110 -110 230 -179 380 -218 42 -11 83 -29 97 -42 l23 -22 0 -308 c0 -170 3 -315 6 -324 6 -14 117 -16 1165 -16 1135 0 1159 0 1169 19 6 12 10 134 10 326 l0 306 25 24 c13 14 33 25 44 25 11 0 30 4 43 9 13 5 41 14 63 21 204 63 395 234 486 435 51 114 70 207 71 345 0 119 -4 148 -41 267 -5 18 -26 65 -46 105 -107 214 -310 372 -548 428 -100 23 -97 14 -97 354 0 214 -3 295 -12 304 -9 9 -282 12 -1168 12 -636 0 -1160 -3 -1163 -7z m1293 -527 c159 -27 267 -81 360 -183 150 -164 176 -399 66 -588 -33 -56 -113 -139 -181 -187 -48 -34 -186 -107 -270 -143 -244 -103 -324 -179 -312 -298 4 -43 10 -56 44 -88 60 -56 140 -72 242 -48 47 10 186 75 236 109 36 24 93 25 120 2 11 -9 44 -53 73 -98 70 -108 71 -139 5 -187 -43 -30 -152 -86 -225 -116 -108 -42 -355 -56 -466 -25 -248 68 -402 257 -402 494 0 130 48 245 145 345 77 79 130 115 263 176 263 123 326 163 369 236 35 60 34 137 -3 192 -34 52 -112 91 -181 91 -87 0 -215 -51 -361 -144 -66 -42 -98 -34 -143 34 -60 90 -89 149 -89 177 0 59 156 165 315 214 62 20 213 45 285 48 14 0 63 -6 110 -13z"/>
 </g>

</svg>